<svg version="1.0" xmlns="http://www.w3.org/2000/svg"
   width="50.000000pt" height="50.000000pt" viewBox="0 0 50.000000 50.000000"
   preserveAspectRatio="xMidYMid meet">
   <g transform="translate(0.000000,50.000000) scale(0.100000,-0.100000)"
   fill="#767841" stroke="none">
   <path d="M268 483 c-8 -10 -18 -26 -21 -36 -6 -17 -9 -17 -29 -3 -25 18 -58
   21 -58 7 0 -5 10 -11 22 -13 33 -5 33 -25 -1 -31 -43 -9 -101 -65 -127 -122
   -12 -28 -29 -57 -38 -64 -18 -15 -21 -47 -6 -56 6 -4 26 -31 45 -60 47 -75 96
   -100 195 -100 99 0 148 25 195 100 19 29 39 56 45 60 15 9 12 41 -6 56 -9 7
   -26 36 -38 64 -28 62 -83 111 -141 126 -25 6 -45 15 -45 19 0 4 9 19 20 33 11
   14 20 28 20 31 0 12 -17 6 -32 -11z m45 -94 c51 -14 105 -70 119 -124 7 -27
   19 -45 30 -48 23 -7 24 -47 1 -54 -10 -2 -27 -23 -38 -46 -35 -73 -118 -108
   -219 -93 -60 9 -107 42 -131 93 -11 23 -28 44 -37 46 -24 7 -23 47 0 54 11 3
   23 21 30 48 26 99 136 155 245 124z"/>
   <path d="M144 226 c-10 -26 4 -48 28 -44 17 2 23 10 23 28 0 18 -6 26 -23 28
   -13 2 -25 -3 -28 -12z"/>
   <path d="M304 226 c-10 -26 4 -48 28 -44 17 2 23 10 23 28 0 18 -6 26 -23 28
   -13 2 -25 -3 -28 -12z"/>
   <path d="M182 109 c11 -34 125 -34 136 0 4 11 0 12 -14 6 -11 -5 -35 -9 -54
   -9 -19 0 -43 4 -54 9 -14 6 -18 5 -14 -6z"/>
   </g>
</svg>
