<svg version="1.0" xmlns="http://www.w3.org/2000/svg"
width="60.000000pt" height="60.000000pt" viewBox="0 0 60.000000 60.000000" preserveAspectRatio="xMidYMid meet">
<g transform="translate(0.000000,60.000000) scale(0.100000,-0.100000)"
fill="#4a4e2c" stroke="none">
<path d="M69 534 c-26 -7 -52 -20 -58 -28 -8 -9 -11 -68 -9 -192 l3 -179 30 1
c17 1 57 7 91 14 56 12 70 11 183 -15 130 -29 202 -30 258 -3 l28 13 0 185 0
185 -95 -3 c-72 -3 -116 1 -181 17 -96 23 -129 26 -129 11 0 -5 9 -10 21 -10
11 0 57 -9 102 -21 65 -17 102 -20 175 -16 l92 4 0 -168 c0 -164 -1 -169 -22
-181 -36 -20 -162 -15 -272 11 -102 25 -107 25 -238 -5 l-28 -6 0 170 c0 124
3 172 13 180 7 6 34 16 60 22 25 7 44 16 41 21 -6 11 -8 11 -65 -7z"/>
<path d="M111 489 c-25 -5 -48 -12 -53 -17 -5 -5 -7 -69 -6 -143 3 -128 4
-134 23 -131 11 2 39 5 63 9 64 9 53 27 -13 19 l-55 -6 0 119 0 119 50 11 c28
6 62 11 76 11 14 0 22 4 19 10 -7 12 -42 11 -104 -1z"/>
<path d="M480 453 c-50 -9 -47 -26 3 -20 l48 5 -3 -122 -3 -121 -32 -3 c-18
-2 -33 -7 -33 -13 0 -10 34 -12 68 -3 21 6 22 10 22 145 0 155 5 145 -70 132z"/>
<path d="M250 356 c0 -50 -4 -76 -12 -79 -10 -4 -10 -8 -2 -14 7 -4 14 -17 17
-28 5 -19 5 -19 12 3 5 15 15 22 31 22 13 0 24 5 24 10 0 6 -11 10 -25 10 -16
0 -25 6 -25 15 0 10 10 15 33 15 38 0 50 7 67 39 10 20 9 27 -7 50 -16 20 -30
27 -67 29 l-46 3 0 -75z m94 38 c9 -8 16 -19 16 -24 0 -18 -33 -40 -61 -40
-27 0 -29 2 -29 40 0 38 2 40 29 40 16 0 37 -7 45 -16z"/>
<path d="M120 350 c0 -5 9 -10 19 -10 11 0 23 5 26 10 4 6 -5 10 -19 10 -14 0
-26 -4 -26 -10z"/>
<path d="M430 310 c0 -5 11 -10 25 -10 14 0 25 5 25 10 0 6 -11 10 -25 10 -14
0 -25 -4 -25 -10z"/>
<path d="M410 180 c0 -5 5 -10 11 -10 5 0 7 5 4 10 -3 6 -8 10 -11 10 -2 0 -4
-4 -4 -10z"/>
<path d="M68 98 c-21 -6 -38 -15 -38 -20 0 -6 11 -8 28 -3 73 18 171 17 260
-4 95 -22 197 -28 207 -11 4 6 -17 10 -57 10 -35 0 -99 9 -143 20 -85 21 -195
24 -257 8z"/>
<path d="M560 80 c0 -5 5 -10 11 -10 5 0 7 5 4 10 -3 6 -8 10 -11 10 -2 0 -4
-4 -4 -10z"/>
</g>
</svg>
