<svg id="svg" fill="#000000" stroke="#000000" width="200px" height="200px" version="1.1" viewBox="144 144 512 512" xmlns="http://www.w3.org/2000/svg">
    <g id="IconSvg_bgCarrier" stroke-width="0"></g>
    <g id="IconSvg_tracerCarrier" stroke-linecap="round" stroke-linejoin="round" stroke="#CCCCCC"></g>
     <g id="IconSvg_iconCarrier">
      <g xmlns="http://www.w3.org/2000/svg" fill-rule="evenodd">
  <path d="m274.05 536.45h20.992c5.793 0 10.496-4.6992 10.496-10.496 0-5.793-4.7031-10.496-10.496-10.496h-20.992c-5.793 0-10.496 4.7031-10.496 10.496 0 5.7969 4.7031 10.496 10.496 10.496z"></path>
  <path d="m515.45 404.34 118.54-118.53c5.9062-5.8984 9.2227-13.906 9.2227-22.262s-3.3242-16.363-9.2227-22.262c-3.9883-4-8.3047-8.3125-12.305-12.301-5.8984-5.8984-13.906-9.2266-22.262-9.2266s-16.363 3.3164-22.262 9.2266l-61.707 61.703v-37.637c0-8.3555-3.3164-16.363-9.2227-22.262-5.8984-5.9102-13.91-9.2266-22.266-9.2266h-75.266c-4.3125-12.227-15.984-20.992-29.691-20.992h-10.496v-10.496c0-17.391-14.098-31.488-31.488-31.488-17.395 0-31.488 14.098-31.488 31.488v10.496h-10.496c-13.707 0-25.379 8.7656-29.695 20.992h-75.266c-8.3555 0-16.363 3.3164-22.262 9.2266-5.9102 5.8984-9.2266 13.906-9.2266 22.262v356.86c0 8.3555 3.3164 16.363 9.2266 22.262 5.8984 5.9102 13.906 9.2266 22.262 9.2266h293.89c8.3555 0 16.367-3.3164 22.266-9.2266 5.9062-5.8984 9.2227-13.906 9.2227-22.262zm-20.992 20.992-20.988 20.992v142.6c0 5.7969-4.7031 10.496-10.496 10.496h-251.91c-5.793 0-10.496-4.6992-10.496-10.496v-314.88c0-5.793 4.7031-10.496 10.496-10.496h52.48v-20.992h-73.473c-2.7812 0-5.457 1.1016-7.4219 3.0742-1.9727 1.9648-3.0742 4.6406-3.0742 7.4219v356.86c0 2.7812 1.1016 5.4609 3.0742 7.4219 1.9648 1.9727 4.6406 3.0742 7.4219 3.0742h293.89c2.7852 0 5.4609-1.1016 7.4219-3.0742 1.9727-1.9609 3.0742-4.6406 3.0742-7.4219zm-41.98-71.668v-69.125h-230.91v293.89h230.91v-111.11l-45.062 45.059c-1.1523 1.1562-2.5508 2.0273-4.1016 2.5391l-62.977 20.992c-3.7695 1.25-7.9258 0.27344-10.738-2.5391s-3.7891-6.9688-2.5391-10.738l20.992-62.977c0.51172-1.5508 1.3828-2.9492 2.5391-4.1016zm-98.863 155.69 26.953-8.9844-17.969-17.969zm46.383-19.238 174.09-174.09-27.145-27.145-174.09 174.09zm10.496-247.56v20.992h52.48c5.793 0 10.496 4.7031 10.496 10.496v58.629s20.988-20.992 20.988-20.992v-58.629c0-2.7812-1.1016-5.457-3.0742-7.4219-1.9609-1.9727-4.6367-3.0742-7.4219-3.0742zm178.43 58.629-27.141-27.141 30.219-30.219c1.9609-1.9609 4.6367-3.0742 7.418-3.0742s5.4609 1.1133 7.4219 3.0742l12.301 12.301c1.9648 1.9648 3.0742 4.6406 3.0742 7.4219s-1.1094 5.457-3.0742 7.4219zm-199.42-37.637h-104.96v-31.488c0-5.793 4.7031-10.496 10.496-10.496h83.969c5.793 0 10.496 4.7031 10.496 10.496zm-52.48-83.969c-5.7539 0-10.422 4.6289-10.496 10.359v10.633h20.992v-10.496c0-5.793-4.7031-10.496-10.496-10.496z"></path>
  <path d="m274.05 347.52h125.95c5.793 0 10.496-4.7031 10.496-10.496 0-5.7969-4.7031-10.496-10.496-10.496h-125.95c-5.793 0-10.496 4.6992-10.496 10.496 0 5.793 4.7031 10.496 10.496 10.496z"></path>
  <path d="m274.05 389.5h104.96c5.793 0 10.496-4.7031 10.496-10.496 0-5.7969-4.7031-10.496-10.496-10.496h-104.96c-5.793 0-10.496 4.6992-10.496 10.496 0 5.793 4.7031 10.496 10.496 10.496z"></path>
  <path d="m274.05 431.49h62.977c5.793 0 10.496-4.7031 10.496-10.496 0-5.7969-4.7031-10.496-10.496-10.496h-62.977c-5.793 0-10.496 4.6992-10.496 10.496 0 5.793 4.7031 10.496 10.496 10.496z"></path>
  <path d="m274.05 473.47h41.984c5.793 0 10.496-4.7031 10.496-10.496 0-5.7969-4.7031-10.496-10.496-10.496h-41.984c-5.793 0-10.496 4.6992-10.496 10.496 0 5.793 4.7031 10.496 10.496 10.496z"></path>
 </g>

      </g>
      </svg>