<svg version="1.0" xmlns="http://www.w3.org/2000/svg"
width="32.000000pt" height="32.000000pt" viewBox="0 0 32.000000 32.000000"
preserveAspectRatio="xMidYMid meet">
   <g transform="translate(0.000000,32.000000) scale(0.100000,-0.100000)"
   fill="#4a4e2c" stroke="none">
   <path d="M134 312 c-37 -25 -44 -104 -14 -170 26 -57 54 -57 80 1 38 83 17
   177 -40 177 -8 0 -20 -4 -26 -8z m56 -31 c22 -41 0 -161 -30 -161 -16 0 -40
   63 -40 105 0 46 15 75 40 75 11 0 24 -9 30 -19z"/>
   <path d="M130 65 c-26 -32 13 -81 48 -59 34 22 22 74 -18 74 -10 0 -23 -7 -30
   -15z m46 -16 c10 -17 -13 -36 -27 -22 -12 12 -4 33 11 33 5 0 12 -5 16 -11z"/>
   </g>
</svg>
