<svg version="1.0" xmlns="http://www.w3.org/2000/svg"
 width="48.000000pt" height="48.000000pt" viewBox="0 0 48.000000 48.000000"
 preserveAspectRatio="xMidYMid meet">

<g transform="translate(0.000000,48.000000) scale(0.100000,-0.100000)"
fill="#4a4e2c" stroke="none">
<path d="M213 415 c-35 -23 -53 -42 -53 -55 0 -11 7 -20 15 -20 8 0 15 6 15
14 0 8 20 25 44 39 l43 24 42 -25 41 -24 0 -68 0 -69 -32 -3 c-54 -5 -33 -23
34 -28 l63 -5 3 -68 3 -67 -86 0 -85 0 0 98 c0 89 -8 122 -30 122 -3 0 -4 -49
-2 -109 l4 -110 -58 -3 c-33 -2 -59 -7 -59 -13 0 -15 313 -19 331 -4 10 8 14
34 14 84 0 75 -15 105 -53 105 -14 0 -17 11 -17 73 0 58 -4 77 -17 89 -22 18
-92 58 -101 57 -4 0 -31 -15 -59 -34z"/>
<path d="M220 340 c0 -13 7 -20 20 -20 13 0 20 7 20 20 0 13 -7 20 -20 20 -13
0 -20 -7 -20 -20z"/>
<path d="M290 340 c0 -13 7 -20 20 -20 13 0 20 7 20 20 0 13 -7 20 -20 20 -13
0 -20 -7 -20 -20z"/>
<path d="M83 295 l-53 -35 0 -103 c0 -102 7 -127 37 -127 7 0 13 7 13 15 0 8
-4 15 -10 15 -6 0 -10 38 -10 94 l0 94 42 25 c34 20 47 23 65 14 33 -15 42 1
13 23 -33 25 -36 25 -97 -15z"/>
<path d="M290 270 c0 -13 7 -20 20 -20 13 0 20 7 20 20 0 13 -7 20 -20 20 -13
0 -20 -7 -20 -20z"/>
<path d="M90 200 c0 -13 7 -20 20 -20 13 0 20 7 20 20 0 13 -7 20 -20 20 -13
0 -20 -7 -20 -20z"/>
<path d="M160 200 c0 -13 7 -20 20 -20 13 0 20 7 20 20 0 13 -7 20 -20 20 -13
0 -20 -7 -20 -20z"/>
<path d="M290 160 c0 -13 7 -20 20 -20 13 0 20 7 20 20 0 13 -7 20 -20 20 -13
0 -20 -7 -20 -20z"/>
<path d="M360 160 c0 -13 7 -20 20 -20 13 0 20 7 20 20 0 13 -7 20 -20 20 -13
0 -20 -7 -20 -20z"/>
<path d="M90 130 c0 -13 7 -20 20 -20 13 0 20 7 20 20 0 13 -7 20 -20 20 -13
0 -20 -7 -20 -20z"/>
<path d="M160 130 c0 -13 7 -20 20 -20 13 0 20 7 20 20 0 13 -7 20 -20 20 -13
0 -20 -7 -20 -20z"/>
<path d="M290 100 c0 -13 7 -20 20 -20 13 0 20 7 20 20 0 13 -7 20 -20 20 -13
0 -20 -7 -20 -20z"/>
<path d="M360 100 c0 -13 7 -20 20 -20 13 0 20 7 20 20 0 13 -7 20 -20 20 -13
0 -20 -7 -20 -20z"/>
</g>
</svg>
