<svg version="1.0" xmlns="http://www.w3.org/2000/svg"
 width="50.000000pt" height="50.000000pt" viewBox="0 0 50.000000 50.000000"
 preserveAspectRatio="xMidYMid meet">

<g transform="translate(0.000000,50.000000) scale(0.100000,-0.100000)"
fill="#4a4e2c" stroke="none">
<path d="M360 440 l0 -60 -60 0 -60 0 0 -60 0 -60 -60 0 -60 0 0 -60 0 -60
-60 0 -60 0 0 -70 c0 -40 4 -70 10 -70 6 0 10 27 10 60 l0 60 60 0 60 0 0 60
0 60 60 0 60 0 0 60 0 60 60 0 60 0 0 60 0 60 60 0 c33 0 60 4 60 10 0 6 -30
10 -70 10 l-70 0 0 -60z"/>
</g>
</svg>
