<svg version="1.0" xmlns="http://www.w3.org/2000/svg"
   width="48.000000pt" height="48.000000pt" viewBox="0 0 48.000000 48.000000"
   preserveAspectRatio="xMidYMid meet">

   <g transform="translate(0.000000,48.000000) scale(0.100000,-0.100000)"
   fill="#767841" stroke="none">
   <path d="M60 460 c0 -12 40 -33 48 -25 4 4 -2 13 -12 21 -23 16 -36 18 -36 4z"/>
   <path d="M384 456 c-10 -8 -16 -17 -12 -21 8 -8 48 13 48 25 0 14 -13 12 -36
   -4z"/>
   <path d="M172 444 c-54 -28 -77 -70 -77 -139 0 -53 4 -66 38 -114 29 -41 37
   -63 37 -96 0 -37 5 -47 29 -64 16 -12 34 -21 41 -21 7 0 25 9 41 21 24 17 29
   27 29 64 0 33 8 55 37 96 62 90 54 188 -20 241 -39 28 -112 34 -155 12z m123
   -18 c41 -17 75 -68 75 -112 0 -17 -11 -46 -25 -65 -13 -19 -32 -49 -42 -66
   -24 -48 -53 -44 -53 6 0 29 6 42 23 54 28 19 17 33 -12 15 -17 -11 -25 -11
   -42 0 -29 18 -40 4 -11 -15 16 -12 22 -25 22 -54 0 -50 -29 -54 -53 -6 -10 17
   -29 47 -42 66 -30 41 -32 85 -5 129 34 55 100 75 165 48z m-5 -306 c0 -5 -22
   -10 -50 -10 -27 0 -50 5 -50 10 0 6 23 10 50 10 28 0 50 -4 50 -10z m-5 -40
   c-3 -5 -24 -10 -45 -10 -21 0 -42 5 -45 10 -4 6 13 10 45 10 32 0 49 -4 45
   -10z"/>
   <path d="M10 320 c0 -5 13 -10 30 -10 17 0 30 5 30 10 0 6 -13 10 -30 10 -17
   0 -30 -4 -30 -10z"/>
   <path d="M410 320 c0 -5 14 -10 30 -10 17 0 30 5 30 10 0 6 -13 10 -30 10 -16
   0 -30 -4 -30 -10z"/>
   <path d="M74 196 c-10 -8 -16 -17 -12 -21 8 -8 48 13 48 25 0 14 -13 12 -36
   -4z"/>
   <path d="M370 200 c0 -12 40 -33 48 -25 4 4 -2 13 -12 21 -23 16 -36 18 -36 4z"/>
   </g>
</svg>
