<svg version="1.0" xmlns="http://www.w3.org/2000/svg"
 width="50.000000pt" height="50.000000pt" viewBox="0 0 50.000000 50.000000"
 preserveAspectRatio="xMidYMid meet">

<g transform="translate(0.000000,50.000000) scale(0.100000,-0.100000)"
fill="#4a4e2c" stroke="none">
<path d="M110 467 c0 -36 15 -55 67 -81 22 -11 30 -21 26 -34 -2 -10 3 -24 11
-31 14 -12 13 -17 -4 -51 -19 -36 -41 -50 -86 -50 -12 0 -27 -7 -34 -15 -11
-13 -7 -22 24 -54 36 -36 37 -40 30 -88 -8 -64 4 -72 61 -42 l43 23 52 -24
c62 -29 71 -21 58 48 -8 44 -7 47 27 82 52 53 49 60 -38 75 -30 5 -41 13 -57
45 -12 24 -16 41 -10 45 6 3 10 17 10 30 0 18 9 29 33 41 52 26 67 45 67 81
l0 33 -140 0 -140 0 0 -33z m260 -6 c0 -20 -30 -45 -88 -75 -33 -17 -34 -17
-90 16 -38 22 -58 41 -60 56 -3 22 -1 22 117 22 113 0 121 -1 121 -19z m-100
-121 c0 -5 -9 -10 -19 -10 -11 0 -23 5 -26 10 -4 6 5 10 19 10 14 0 26 -4 26
-10z m80 -136 c28 -4 50 -9 50 -12 0 -3 -16 -19 -36 -36 -36 -31 -36 -31 -26
-83 5 -29 8 -53 7 -53 -2 0 -22 11 -46 24 l-42 25 -50 -25 -49 -25 7 53 c6 51
5 54 -30 88 l-36 35 53 10 c48 9 55 14 77 54 l24 44 24 -46 c22 -44 26 -47 73
-53z"/>
</g>
</svg>
