<svg version="1.0" xmlns="http://www.w3.org/2000/svg"
 width="512.000000pt" height="512.000000pt" viewBox="0 0 512.000000 512.000000"
 preserveAspectRatio="xMidYMid meet">

<g transform="translate(0.000000,512.000000) scale(0.100000,-0.100000)"
fill="#767841" stroke="none">
<path d="M3800 4674 c-95 -26 -189 -91 -253 -176 -89 -119 -119 -270 -82 -413
60 -230 294 -388 528 -355 128 18 207 59 292 152 249 269 125 699 -230 794
-65 18 -185 17 -255 -2z m266 -182 c93 -48 144 -112 170 -214 29 -110 -7 -221
-97 -302 -153 -138 -397 -88 -490 100 -20 40 -24 64 -24 134 0 73 4 92 27 136
33 62 113 137 171 158 61 22 189 16 243 -12z"/>
<path d="M2050 4624 c-104 -28 -197 -98 -261 -196 -52 -81 -73 -165 -67 -276
4 -79 9 -100 41 -164 47 -96 119 -168 211 -213 234 -114 497 -23 613 213 32
64 37 85 41 164 9 186 -72 339 -229 431 -93 54 -236 71 -349 41z m246 -183
c113 -53 171 -153 162 -280 -11 -152 -130 -262 -283 -262 -153 0 -272 110
-283 262 -9 126 46 222 160 278 83 42 158 43 244 2z"/>
<path d="M2960 3935 c-156 -35 -299 -136 -443 -315 -115 -143 -245 -362 -297
-501 l-12 -34 -54 110 c-29 61 -74 172 -99 248 -56 170 -74 207 -136 273 -58
60 -146 107 -237 125 -125 24 -277 -25 -371 -119 -81 -82 -256 -398 -357 -643
-205 -500 -303 -984 -320 -1578 -10 -320 -4 -331 171 -331 52 0 95 -1 95 -2 0
-2 -16 -148 -35 -326 -19 -177 -35 -332 -35 -343 0 -11 11 -31 25 -44 24 -25
27 -25 188 -25 159 0 164 1 186 24 17 18 33 75 72 247 28 123 51 225 53 226 1
1 32 -91 70 -205 38 -114 77 -216 87 -227 18 -18 35 -20 194 -23 l175 -3 30
30 c17 16 30 38 30 49 0 10 -32 149 -70 308 -39 159 -70 294 -70 300 0 5 15
17 33 25 57 25 60 46 32 225 -40 265 -49 394 -49 704 0 222 4 330 17 435 10
77 20 148 23 157 4 14 33 -11 122 -103 l117 -122 7 -161 c3 -88 11 -240 17
-336 28 -455 3 -986 -60 -1281 -35 -166 -35 -164 -1 -199 l30 -30 186 0 c178
0 186 1 211 23 26 22 29 39 88 405 34 210 65 382 68 382 4 0 9 -10 12 -22 3
-13 37 -147 75 -298 39 -151 78 -320 87 -375 18 -111 33 -142 72 -151 14 -4
98 4 187 16 149 22 163 26 190 52 35 35 36 27 -33 313 -63 267 -142 637 -177
830 -75 420 -22 930 128 1230 32 63 106 172 131 193 13 11 28 -4 98 -95 159
-208 444 -474 606 -565 48 -27 51 -31 42 -54 -5 -15 -9 -383 -9 -930 0 -887 0
-904 20 -924 43 -43 110 -34 137 20 10 19 13 221 13 906 0 671 3 883 12 892
19 19 66 15 78 -7 5 -11 10 -51 10 -89 0 -62 3 -72 26 -96 36 -35 77 -34 115
3 27 27 29 35 29 103 0 86 -11 133 -45 182 -23 34 -23 38 -10 70 20 46 19 134
-1 182 -10 24 -73 93 -181 198 -269 261 -393 422 -508 660 -49 102 -77 146
-126 200 -132 144 -291 216 -484 222 -72 2 -133 -1 -175 -11z m285 -170 c82
-22 149 -60 223 -130 56 -52 72 -75 127 -190 117 -244 259 -430 524 -687 138
-134 161 -161 161 -187 0 -39 -43 -75 -79 -66 -14 4 -55 24 -91 45 -246 144
-550 467 -757 805 -30 49 -62 96 -71 103 -27 21 -80 15 -107 -13 -36 -35 -32
-78 13 -150 l38 -60 -59 -70 c-191 -226 -292 -547 -317 -1003 -12 -219 -4
-320 46 -597 36 -199 110 -550 167 -793 38 -161 43 -143 -43 -156 l-36 -6 -37
169 c-80 359 -244 931 -278 967 -45 48 -121 23 -138 -44 -5 -20 -46 -264 -91
-542 -45 -277 -84 -508 -86 -512 -3 -4 -34 -8 -70 -8 -62 0 -64 1 -59 23 73
328 92 902 49 1540 -23 343 -5 523 76 769 42 127 147 334 228 448 89 125 232
270 300 304 110 56 250 71 367 41z m-1530 -109 c45 -19 103 -73 124 -115 10
-20 26 -63 35 -96 42 -149 138 -367 227 -511 l40 -66 -11 -56 c-7 -32 -14 -68
-16 -81 l-5 -24 -26 24 c-45 43 -171 197 -224 275 -63 93 -104 183 -124 267
-16 69 -48 107 -91 107 -34 0 -84 -51 -84 -85 0 -72 56 -221 124 -334 l35 -57
-19 -95 c-70 -341 -79 -873 -24 -1309 8 -63 17 -125 19 -138 l5 -22 -447 2
-448 3 3 180 c7 493 103 982 283 1440 58 149 205 439 278 551 61 95 110 136
184 155 40 10 120 2 162 -15z m-485 -2488 c0 -2 -29 -129 -63 -283 l-64 -280
-46 -3 c-26 -2 -47 -2 -47 0 0 2 14 127 30 278 17 151 30 278 30 282 0 4 36 8
80 8 44 0 80 -1 80 -2z m390 -5 c0 -5 27 -120 60 -257 33 -136 60 -252 60
-258 0 -5 -25 -8 -56 -6 l-57 3 -83 255 c-46 140 -84 258 -84 263 0 4 36 7 80
7 44 0 80 -3 80 -7z"/>
</g>
</svg>
