<svg version="1.0" xmlns="http://www.w3.org/2000/svg"
   width="512.000000pt" height="512.000000pt" viewBox="0 0 512.000000 512.000000"
   preserveAspectRatio="xMidYMid meet">

   <g transform="translate(0.000000,512.000000) scale(0.100000,-0.100000)"
   fill="#4a4e2c" stroke="none">
   <path d="M978 4590 c-215 -18 -508 -80 -576 -122 -42 -26 -72 -85 -72 -141 l0
   -44 -105 -38 c-139 -51 -175 -73 -202 -120 l-23 -40 0 -1605 c0 -1543 1 -1607
   19 -1640 10 -19 33 -45 51 -57 58 -40 86 -39 231 11 265 90 511 129 824 130
   504 1 863 -107 1100 -328 33 -32 75 -61 95 -66 45 -13 435 -13 478 -1 18 6 60
   35 95 66 155 141 322 222 578 278 176 40 296 51 524 51 314 -1 554 -39 823
   -131 145 -49 173 -51 232 -10 18 12 41 38 51 57 18 33 19 96 19 1635 0 1556
   -1 1601 -20 1642 -23 52 -52 71 -197 124 l-113 42 0 44 c0 53 -29 113 -65 137
   -55 36 -295 93 -490 117 -129 16 -452 16 -580 0 -335 -41 -625 -127 -937 -278
   l-158 -77 -147 72 c-313 151 -590 235 -904 276 -150 19 -397 27 -531 16z m367
   -121 c359 -27 705 -122 1025 -282 l125 -62 3 -1538 c1 -845 0 -1537 -3 -1537
   -3 0 -31 13 -63 29 -180 91 -413 175 -627 226 -248 60 -340 70 -635 69 -284 0
   -366 -8 -582 -60 -87 -21 -112 -23 -123 -14 -13 11 -15 209 -15 1536 0 1441 1
   1524 18 1533 33 18 268 70 382 85 193 26 308 29 495 15z m2930 -15 c138 -19
   362 -73 381 -91 22 -22 21 -3045 -1 -3063 -11 -9 -36 -7 -123 14 -179 43 -297
   57 -513 63 -230 6 -371 -4 -574 -43 -244 -47 -478 -124 -710 -233 -59 -28
   -110 -51 -112 -51 -1 0 -2 692 -1 1537 l3 1537 115 58 c328 166 699 267 1070
   292 97 6 351 -5 465 -20z m-3945 -1729 c0 -1558 -4 -1465 59 -1518 48 -40 85
   -42 208 -13 187 44 292 57 499 63 224 6 367 -5 567 -43 260 -50 526 -144 769
   -272 l128 -67 127 67 c292 152 574 245 893 295 90 14 172 18 375 18 278 -1
   351 -9 567 -61 121 -30 160 -28 209 13 63 53 59 -40 59 1518 0 1134 3 1425 13
   1424 6 0 53 -17 102 -37 l90 -37 0 -1594 c0 -1442 -2 -1595 -16 -1604 -11 -7
   -37 -1 -95 21 -286 110 -722 169 -1068 144 -438 -32 -748 -137 -970 -328 l-86
   -74 -205 0 -205 0 -60 58 c-154 149 -417 263 -730 316 -414 71 -942 26 -1310
   -111 -67 -25 -98 -33 -110 -26 -13 9 -15 176 -15 1604 l0 1594 90 37 c50 21
   96 37 103 38 9 0 12 -292 12 -1425z"/>
   <path d="M1009 4089 c-167 -11 -319 -36 -341 -56 -24 -21 -23 -65 1 -87 18
   -17 25 -17 122 -1 437 69 909 14 1348 -157 97 -38 107 -40 130 -27 30 17 40
   62 19 86 -43 52 -469 181 -716 218 -93 14 -381 37 -422 33 -8 0 -72 -5 -141
   -9z"/>
   <path d="M940 3534 c-131 -16 -248 -38 -267 -50 -43 -27 -22 -104 28 -104 10
   0 63 8 117 17 143 25 575 25 727 0 214 -36 426 -94 612 -168 86 -34 104 -36
   127 -10 29 32 17 72 -29 98 -108 59 -475 164 -695 199 -101 15 -534 28 -620
   18z"/>
   <path d="M934 2979 c-122 -11 -253 -36 -270 -50 -20 -16 -14 -79 8 -92 12 -8
   53 -6 145 7 423 60 867 10 1277 -144 74 -27 143 -50 154 -50 31 0 53 28 50 64
   -3 26 -11 35 -51 54 -138 66 -434 152 -637 186 -214 35 -474 45 -676 25z"/>
   <path d="M964 2429 c-129 -11 -285 -38 -301 -51 -22 -18 -16 -75 10 -93 21
   -13 33 -13 107 0 427 75 923 19 1361 -155 109 -43 143 -42 155 4 11 46 -3 63
   -84 97 -383 159 -850 234 -1248 198z"/>
   <path d="M1010 1880 c-206 -14 -344 -39 -354 -66 -11 -29 -6 -61 13 -78 18
   -17 25 -17 119 -2 166 27 370 36 538 26 300 -19 540 -76 876 -206 43 -17 47
   -17 72 -1 31 21 35 66 8 90 -40 36 -331 134 -527 178 -235 51 -519 74 -745 59z"/>
   <path d="M3785 4090 c-154 -10 -262 -25 -405 -57 -209 -46 -502 -143 -543
   -180 -26 -24 -19 -74 14 -92 23 -13 33 -11 130 27 439 171 911 226 1348 157
   97 -16 104 -16 122 1 24 22 25 66 1 87 -24 22 -170 44 -367 57 -88 5 -164 9
   -170 8 -5 0 -64 -4 -130 -8z"/>
   <path d="M3700 3533 c-248 -23 -653 -127 -820 -210 -45 -23 -56 -33 -58 -56
   -4 -33 21 -67 49 -67 10 0 62 17 117 39 179 69 377 123 587 158 159 26 561 26
   732 -1 119 -19 124 -19 143 -1 27 25 26 71 -2 89 -47 29 -214 48 -463 51 -132
   1 -260 1 -285 -2z"/>
   <path d="M3735 2984 c-216 -23 -377 -54 -554 -105 -113 -33 -327 -113 -348
   -131 -18 -15 -16 -63 3 -82 23 -24 44 -20 190 34 410 154 854 204 1277 144
   149 -21 162 -17 162 42 0 50 -15 57 -160 79 -106 16 -479 28 -570 19z"/>
   <path d="M3775 2433 c-301 -24 -616 -97 -860 -199 -65 -28 -86 -41 -91 -59 -9
   -37 -1 -59 28 -73 24 -11 37 -8 128 28 434 173 934 230 1359 155 76 -13 87
   -13 108 0 15 10 23 25 23 45 0 34 -20 56 -57 64 -188 37 -459 54 -638 39z"/>
   <path d="M3835 1883 c-136 -6 -288 -25 -425 -53 -205 -41 -527 -147 -572 -187
   -27 -24 -23 -69 8 -90 25 -16 29 -16 72 1 230 90 444 150 634 181 234 37 542
   37 775 0 86 -14 98 -14 119 0 29 19 32 65 6 88 -10 9 -59 23 -115 32 -93 15
   -365 36 -417 33 -14 -1 -52 -3 -85 -5z"/>
   </g>
</svg>
